<svg fill="none" height="26" viewBox="0 0 25 26" width="25" xmlns="http://www.w3.org/2000/svg">
    <path
        d="M8.07294 2.16675V5.41675H7.29169C7.02085 5.41675 6.76044 5.42758 6.51044 5.47091V2.16675C6.51044 1.72258 6.8646 1.35425 7.29169 1.35425C7.71877 1.35425 8.07294 1.72258 8.07294 2.16675Z"
        fill="white" />
    <path
        d="M17.7083 5.41675H7.29165C7.02081 5.41675 6.7604 5.42758 6.5104 5.47091C3.8229 5.79591 2.08331 7.86508 2.08331 10.8334V18.4167C2.08331 21.6667 4.16665 23.8334 7.29165 23.8334H17.7083C20.8333 23.8334 22.9166 21.6667 22.9166 18.4167V10.8334C22.9166 7.58341 20.8333 5.41675 17.7083 5.41675ZM8.20831 17.3334C6.77081 17.3334 5.60415 16.1201 5.60415 14.6251C5.60415 13.1301 6.77081 11.9167 8.20831 11.9167C9.64581 11.9167 10.8125 13.1301 10.8125 14.6251C10.8125 16.1201 9.64581 17.3334 8.20831 17.3334ZM14.9791 17.6042H14.4583C14.0312 17.6042 13.6771 17.2359 13.6771 16.7917C13.6771 16.3476 14.0312 15.9792 14.4583 15.9792H14.9791C15.4062 15.9792 15.7604 16.3476 15.7604 16.7917C15.7604 17.2359 15.4062 17.6042 14.9791 17.6042ZM18.625 17.6042H18.1041C17.6771 17.6042 17.3229 17.2359 17.3229 16.7917C17.3229 16.3476 17.6771 15.9792 18.1041 15.9792H18.625C19.0521 15.9792 19.4062 16.3476 19.4062 16.7917C19.4062 17.2359 19.0521 17.6042 18.625 17.6042ZM18.625 13.2709H14.4583C14.0312 13.2709 13.6771 12.9026 13.6771 12.4584C13.6771 12.0142 14.0312 11.6459 14.4583 11.6459H18.625C19.0521 11.6459 19.4062 12.0142 19.4062 12.4584C19.4062 12.9026 19.0521 13.2709 18.625 13.2709Z"
        fill="white" />
</svg>
